<mxfile host="app.diagrams.net" modified="2021-05-11T12:36:57.809Z" agent="5.0 (Windows NT 10.0; Win64; x64) AppleWebKit/537.36 (KHTML, like Gecko) Chrome/90.0.4430.93 Safari/537.36" etag="2RRzlNVNjY3ShIG01jML" version="14.6.11" type="github">
  <diagram id="R2lEEEUBdFMjLlhIrx00" name="Page-1">
    <mxGraphModel dx="1619" dy="796" grid="1" gridSize="14" guides="1" tooltips="1" connect="1" arrows="1" fold="1" page="1" pageScale="1" pageWidth="850" pageHeight="1100" math="0" shadow="0" extFonts="Permanent Marker^https://fonts.googleapis.com/css?family=Permanent+Marker">
      <root>
        <mxCell id="0" />
        <mxCell id="1" parent="0" />
        <mxCell id="Q02FXsza6Zca475B_VZM-1" value="&lt;font&gt;&lt;b&gt;&lt;u&gt;&lt;font style=&quot;font-size: 22px&quot;&gt;client&lt;/font&gt;&lt;br&gt;&lt;/u&gt;&lt;/b&gt;&lt;span style=&quot;font-size: 16px&quot;&gt;clientID&lt;/span&gt;&lt;br&gt;&lt;span style=&quot;font-size: 16px&quot;&gt;nom&lt;/span&gt;&lt;br&gt;&lt;span style=&quot;font-size: 16px&quot;&gt;prénom&lt;/span&gt;&lt;br&gt;&lt;span style=&quot;font-size: 16px&quot;&gt;adresse&lt;/span&gt;&lt;br&gt;&lt;span style=&quot;font-size: 16px&quot;&gt;phone&lt;/span&gt;&lt;br&gt;&lt;span style=&quot;font-size: 16px&quot;&gt;email&lt;/span&gt;&lt;br&gt;&lt;span style=&quot;font-size: 16px&quot;&gt;motdepasse&lt;/span&gt;&lt;br&gt;&lt;br&gt;&lt;/font&gt;" style="rounded=0;whiteSpace=wrap;html=1;" vertex="1" parent="1">
          <mxGeometry x="84" y="196" width="210" height="210" as="geometry" />
        </mxCell>
        <mxCell id="Q02FXsza6Zca475B_VZM-2" value="passer" style="rounded=0;whiteSpace=wrap;html=1;" vertex="1" parent="1">
          <mxGeometry x="372" y="266" width="98" height="42" as="geometry" />
        </mxCell>
        <mxCell id="Q02FXsza6Zca475B_VZM-4" value="&lt;font&gt;&lt;u style=&quot;font-size: 22px ; font-weight: bold&quot;&gt;&lt;font style=&quot;font-size: 22px&quot;&gt;produits&lt;/font&gt;&lt;/u&gt;&lt;br&gt;&lt;span style=&quot;font-size: 16px&quot;&gt;produitID&lt;br&gt;&lt;/span&gt;nom produit&lt;br&gt;prix unité&lt;br&gt;stock&lt;br&gt;produit image&lt;br&gt;&lt;br&gt;&lt;/font&gt;" style="rounded=0;whiteSpace=wrap;html=1;" vertex="1" parent="1">
          <mxGeometry x="538" y="487" width="120" height="126" as="geometry" />
        </mxCell>
        <mxCell id="Q02FXsza6Zca475B_VZM-7" value="&lt;b&gt;&lt;u&gt;&lt;font style=&quot;font-size: 20px&quot;&gt;commande&lt;/font&gt;&lt;/u&gt;&lt;/b&gt;&lt;br&gt;commandeID&lt;br&gt;date de commande&lt;br&gt;status&lt;br&gt;date de payement&lt;br&gt;annulé" style="whiteSpace=wrap;html=1;aspect=fixed;" vertex="1" parent="1">
          <mxGeometry x="532" y="224" width="140" height="140" as="geometry" />
        </mxCell>
        <mxCell id="Q02FXsza6Zca475B_VZM-9" value="" style="endArrow=none;html=1;exitX=0;exitY=0.5;exitDx=0;exitDy=0;entryX=1.007;entryY=0.447;entryDx=0;entryDy=0;entryPerimeter=0;" edge="1" parent="1" source="Q02FXsza6Zca475B_VZM-2" target="Q02FXsza6Zca475B_VZM-1">
          <mxGeometry width="50" height="50" relative="1" as="geometry">
            <mxPoint x="448" y="442" as="sourcePoint" />
            <mxPoint x="498" y="392" as="targetPoint" />
          </mxGeometry>
        </mxCell>
        <mxCell id="Q02FXsza6Zca475B_VZM-10" value="" style="endArrow=none;html=1;entryX=0;entryY=0.5;entryDx=0;entryDy=0;exitX=1;exitY=0.5;exitDx=0;exitDy=0;" edge="1" parent="1" source="Q02FXsza6Zca475B_VZM-2" target="Q02FXsza6Zca475B_VZM-7">
          <mxGeometry width="50" height="50" relative="1" as="geometry">
            <mxPoint x="476" y="287" as="sourcePoint" />
            <mxPoint x="498" y="392" as="targetPoint" />
          </mxGeometry>
        </mxCell>
        <mxCell id="Q02FXsza6Zca475B_VZM-11" value="" style="endArrow=none;html=1;entryX=0.438;entryY=1.014;entryDx=0;entryDy=0;entryPerimeter=0;exitX=0.5;exitY=0;exitDx=0;exitDy=0;" edge="1" parent="1" source="Q02FXsza6Zca475B_VZM-16" target="Q02FXsza6Zca475B_VZM-7">
          <mxGeometry width="50" height="50" relative="1" as="geometry">
            <mxPoint x="448" y="442" as="sourcePoint" />
            <mxPoint x="498" y="392" as="targetPoint" />
          </mxGeometry>
        </mxCell>
        <mxCell id="Q02FXsza6Zca475B_VZM-13" value="&lt;b&gt;&lt;u&gt;&lt;font style=&quot;font-size: 20px&quot;&gt;catégorie&lt;/font&gt;&lt;/u&gt;&lt;/b&gt;&lt;br&gt;catégorieID&lt;br&gt;nom catégorie&lt;br&gt;catégorie image" style="whiteSpace=wrap;html=1;aspect=fixed;" vertex="1" parent="1">
          <mxGeometry x="518" y="770" width="98" height="98" as="geometry" />
        </mxCell>
        <mxCell id="Q02FXsza6Zca475B_VZM-15" value="" style="endArrow=none;html=1;exitX=0.5;exitY=0;exitDx=0;exitDy=0;entryX=0.5;entryY=1;entryDx=0;entryDy=0;" edge="1" parent="1" source="Q02FXsza6Zca475B_VZM-19" target="Q02FXsza6Zca475B_VZM-4">
          <mxGeometry width="50" height="50" relative="1" as="geometry">
            <mxPoint x="546" y="610" as="sourcePoint" />
            <mxPoint x="588" y="630" as="targetPoint" />
          </mxGeometry>
        </mxCell>
        <mxCell id="Q02FXsza6Zca475B_VZM-16" value="COMPOSER" style="ellipse;whiteSpace=wrap;html=1;" vertex="1" parent="1">
          <mxGeometry x="542" y="392" width="120" height="80" as="geometry" />
        </mxCell>
        <mxCell id="Q02FXsza6Zca475B_VZM-18" value="" style="endArrow=none;html=1;exitX=0.5;exitY=0;exitDx=0;exitDy=0;" edge="1" parent="1" source="Q02FXsza6Zca475B_VZM-4">
          <mxGeometry width="50" height="50" relative="1" as="geometry">
            <mxPoint x="434" y="526" as="sourcePoint" />
            <mxPoint x="594" y="473" as="targetPoint" />
          </mxGeometry>
        </mxCell>
        <mxCell id="Q02FXsza6Zca475B_VZM-19" value="appartient" style="ellipse;whiteSpace=wrap;html=1;" vertex="1" parent="1">
          <mxGeometry x="518" y="630" width="120" height="80" as="geometry" />
        </mxCell>
        <mxCell id="Q02FXsza6Zca475B_VZM-21" value="" style="endArrow=none;html=1;entryX=0.429;entryY=0.987;entryDx=0;entryDy=0;entryPerimeter=0;exitX=0.5;exitY=0;exitDx=0;exitDy=0;" edge="1" parent="1" source="Q02FXsza6Zca475B_VZM-13" target="Q02FXsza6Zca475B_VZM-19">
          <mxGeometry width="50" height="50" relative="1" as="geometry">
            <mxPoint x="434" y="526" as="sourcePoint" />
            <mxPoint x="484" y="476" as="targetPoint" />
          </mxGeometry>
        </mxCell>
      </root>
    </mxGraphModel>
  </diagram>
</mxfile>
